<?xml version="1.0" encoding="UTF-8" standalone="no"?>
<!-- Generator: Adobe Illustrator 19.1.0, SVG Export Plug-In . SVG Version: 6.00 Build 0)  -->

<svg
   xmlns:dc="http://purl.org/dc/elements/1.1/"
   xmlns:cc="http://creativecommons.org/ns#"
   xmlns:rdf="http://www.w3.org/1999/02/22-rdf-syntax-ns#"
   xmlns:svg="http://www.w3.org/2000/svg"
   xmlns="http://www.w3.org/2000/svg"
   xmlns:sodipodi="http://sodipodi.sourceforge.net/DTD/sodipodi-0.dtd"
   xmlns:inkscape="http://www.inkscape.org/namespaces/inkscape"
   version="1.1"
   x="0px"
   y="0px"
   viewBox="0 0 392.7 117.9"
   style="enable-background:new 0 0 392.7 117.9;"
   xml:space="preserve"
   id="svg2"
   inkscape:version="0.48.4 r9939"
   width="100%"
   height="100%"
   sodipodi:docname="Taurus logo.svg"><metadata
     id="metadata48"><rdf:RDF><cc:Work
         rdf:about=""><dc:format>image/svg+xml</dc:format><dc:type
           rdf:resource="http://purl.org/dc/dcmitype/StillImage" /><dc:title></dc:title></cc:Work></rdf:RDF></metadata><defs
     id="defs46" /><sodipodi:namedview
     pagecolor="#ffffff"
     bordercolor="#666666"
     borderopacity="1"
     objecttolerance="10"
     gridtolerance="10"
     guidetolerance="10"
     inkscape:pageopacity="0"
     inkscape:pageshadow="2"
     inkscape:window-width="640"
     inkscape:window-height="480"
     id="namedview44"
     showgrid="false"
     inkscape:zoom="0.83269672"
     inkscape:cx="196.35"
     inkscape:cy="58.95"
     inkscape:window-x="0"
     inkscape:window-y="35"
     inkscape:window-maximized="0"
     inkscape:current-layer="svg2" /><style
     type="text/css"
     id="style4">
	.st0{fill:#DD4343;}
	.st1{fill:#5B5E73;}
	.st2{display:none;}
	.st3{display:inline;}
	.st4{fill:#E4B439;}
</style><g
     id="Layer_1"><g
       id="g7"><path
         class="st0"
         d="M56.7,16.1c-25,0-45.2,20.3-45.2,45.4c0,21.2,14.5,39,34.1,44v0c0.1,0,0.1,0,0.2,0c0.1,0,0.2,0,0.2,0.1    c0,0,0,0,0,0c1.5,0.4,3.1,0.7,4.7,0.9c0.7,0.1,1.5-0.1,2-0.6s0.9-1.2,0.9-2l0-0.2c0.1-0.6,0-1.2,0-1.2l0-38.5    c0-10.3-5.9-16.2-16.1-16.2c-6.2,0-7.8-6.2-7.9-6.7c-0.7-2.8-9.3,17,7.9,17c5.9,0,7.9,7.5,7.9,13.5c0,6.4,0,25.8,0,25.8    c-15.3-4.7-26.4-19-26.4-35.9c0-20.8,16.8-37.6,37.4-37.6c20.7,0,37.4,16.8,37.4,37.6c0,16.9-11.1,31.2-26.4,35.9l0.1-26.1    c0-6,2-13.4,7.9-13.4c17.2,0,8.6-19.7,7.9-17c-0.1,0.5-1.7,6.7-7.9,6.7c-10.2,0-16.1,5.9-16.1,16.2l0,39.2c0,0-0.2,2,0.9,2.8    c0.6,0.5,1.3,0.7,2,0.6c1.8-0.2,3.5-0.6,5.2-1v0c19.6-5,34.1-22.8,34.1-44C101.9,36.5,81.7,16.1,56.7,16.1z"
         id="path9" /><g
         id="g11"><path
           class="st1"
           d="M162,36.4c0,1.1,0,1.9-0.1,2.7c-0.1,0.7-0.2,1.3-0.4,1.8c-0.2,0.5-0.4,0.8-0.7,1c-0.3,0.2-0.6,0.3-0.9,0.3     h-17.6v56.7c0,0.4-0.1,0.7-0.4,1c-0.2,0.3-0.6,0.5-1.2,0.7c-0.5,0.2-1.3,0.3-2.2,0.4c-0.9,0.1-2.1,0.2-3.4,0.2     c-1.4,0-2.5-0.1-3.5-0.2c-0.9-0.1-1.7-0.3-2.2-0.4c-0.5-0.2-0.9-0.4-1.2-0.7c-0.2-0.3-0.4-0.6-0.4-1V42.2h-17.6     c-0.4,0-0.7-0.1-0.9-0.3c-0.3-0.2-0.5-0.6-0.7-1c-0.2-0.5-0.3-1.1-0.4-1.8c-0.1-0.7-0.1-1.6-0.1-2.7c0-1.1,0-2,0.1-2.8     c0.1-0.8,0.2-1.4,0.4-1.8c0.2-0.5,0.4-0.8,0.7-1c0.3-0.2,0.6-0.3,0.9-0.3h49.5c0.3,0,0.6,0.1,0.9,0.3c0.3,0.2,0.5,0.5,0.7,1     c0.2,0.5,0.3,1.1,0.4,1.8C162,34.4,162,35.3,162,36.4z"
           id="path13" /><path
           class="st1"
           d="M194.5,99.2c0,0.5-0.2,0.9-0.5,1.2c-0.4,0.3-0.9,0.5-1.7,0.6c-0.8,0.1-1.9,0.2-3.5,0.2     c-1.6,0-2.8-0.1-3.6-0.2c-0.7-0.1-1.3-0.3-1.6-0.6c-0.3-0.3-0.5-0.7-0.5-1.2v-3.9c-2,2.1-4.3,3.8-6.8,5c-2.6,1.2-5.4,1.8-8.5,1.8     c-2.6,0-4.9-0.3-7.1-1c-2.2-0.7-4-1.7-5.6-3c-1.6-1.3-2.8-3-3.7-4.9s-1.3-4.2-1.3-6.8c0-2.8,0.6-5.3,1.7-7.4     c1.1-2.1,2.8-3.8,4.9-5.2c2.2-1.4,4.9-2.4,8.2-3s7-1,11.4-1h4.7v-2.9c0-1.5-0.2-2.9-0.5-4c-0.3-1.1-0.8-2.1-1.5-2.9     c-0.7-0.8-1.6-1.3-2.8-1.7c-1.2-0.4-2.6-0.5-4.4-0.5c-2.3,0-4.3,0.3-6.1,0.8c-1.8,0.5-3.4,1.1-4.8,1.7c-1.4,0.6-2.5,1.2-3.4,1.7     c-0.9,0.5-1.7,0.8-2.3,0.8c-0.4,0-0.8-0.1-1.1-0.4c-0.3-0.3-0.6-0.6-0.8-1.1c-0.2-0.5-0.4-1.1-0.5-1.7c-0.1-0.7-0.2-1.4-0.2-2.3     c0-1.1,0.1-2,0.3-2.7c0.2-0.7,0.5-1.2,1-1.8c0.5-0.5,1.4-1.1,2.7-1.7c1.3-0.6,2.8-1.2,4.5-1.8c1.7-0.5,3.6-1,5.6-1.3     c2-0.3,4.1-0.5,6.2-0.5c3.8,0,7.1,0.4,9.8,1.1c2.7,0.7,4.9,1.9,6.7,3.4c1.7,1.5,3,3.5,3.8,5.9c0.8,2.4,1.2,5.3,1.2,8.6V99.2z      M181,78.4h-5.2c-2.2,0-4.1,0.2-5.7,0.5c-1.6,0.3-2.8,0.8-3.8,1.5c-1,0.7-1.7,1.4-2.1,2.4c-0.5,0.9-0.7,2-0.7,3.2     c0,2,0.6,3.6,1.9,4.8c1.3,1.2,3.1,1.7,5.4,1.7c1.9,0,3.7-0.5,5.3-1.5c1.6-1,3.2-2.4,4.9-4.3V78.4z"
           id="path15" /><path
           class="st1"
           d="M247.3,99c0,0.4-0.1,0.7-0.3,1c-0.2,0.3-0.5,0.5-1,0.7c-0.5,0.2-1.1,0.3-1.8,0.4c-0.7,0.1-1.7,0.1-2.8,0.1     c-1.2,0-2.2,0-2.9-0.1c-0.7-0.1-1.3-0.2-1.8-0.4c-0.4-0.2-0.7-0.4-0.9-0.7c-0.2-0.3-0.3-0.6-0.3-1v-5.6c-2.7,2.9-5.4,5.1-8.2,6.5     c-2.8,1.4-5.6,2.2-8.6,2.2c-3.3,0-6.1-0.5-8.4-1.6c-2.3-1.1-4.1-2.6-5.5-4.5c-1.4-1.9-2.4-4.1-3-6.5c-0.6-2.5-0.9-5.6-0.9-9.3     V50.5c0-0.4,0.1-0.7,0.3-1c0.2-0.3,0.6-0.5,1.1-0.7c0.5-0.2,1.2-0.3,2.1-0.4c0.9-0.1,2-0.1,3.3-0.1c1.3,0,2.4,0,3.3,0.1     c0.9,0.1,1.6,0.2,2.1,0.4c0.5,0.2,0.9,0.4,1.1,0.7s0.3,0.6,0.3,1v27.4c0,2.5,0.2,4.5,0.5,5.8c0.3,1.3,0.8,2.5,1.5,3.5     c0.7,1,1.5,1.7,2.6,2.2c1,0.5,2.2,0.8,3.6,0.8c1.7,0,3.5-0.6,5.2-1.9c1.8-1.3,3.6-3.1,5.6-5.5V50.5c0-0.4,0.1-0.7,0.3-1     c0.2-0.3,0.6-0.5,1.1-0.7c0.5-0.2,1.2-0.3,2.1-0.4c0.9-0.1,2-0.1,3.3-0.1c1.3,0,2.4,0,3.3,0.1c0.9,0.1,1.6,0.2,2.1,0.4     c0.5,0.2,0.9,0.4,1.1,0.7c0.2,0.3,0.3,0.6,0.3,1V99z"
           id="path17" /><path
           class="st1"
           d="M285.4,55.1c0,1.3,0,2.4-0.1,3.2c-0.1,0.8-0.2,1.5-0.3,2c-0.1,0.5-0.3,0.8-0.6,1c-0.2,0.2-0.5,0.3-0.9,0.3     c-0.3,0-0.6-0.1-1-0.2c-0.4-0.1-0.8-0.3-1.2-0.4c-0.5-0.1-1-0.3-1.5-0.4c-0.5-0.1-1.1-0.2-1.8-0.2c-0.8,0-1.5,0.2-2.3,0.5     c-0.8,0.3-1.5,0.8-2.4,1.4c-0.8,0.7-1.7,1.5-2.6,2.6c-0.9,1.1-1.8,2.4-2.9,4V99c0,0.4-0.1,0.7-0.3,1c-0.2,0.3-0.6,0.5-1.1,0.7     c-0.5,0.2-1.2,0.3-2.1,0.4c-0.9,0.1-2,0.1-3.3,0.1c-1.3,0-2.4,0-3.3-0.1c-0.9-0.1-1.6-0.2-2.1-0.4c-0.5-0.2-0.9-0.4-1.1-0.7     c-0.2-0.3-0.3-0.6-0.3-1V50.5c0-0.4,0.1-0.7,0.3-1c0.2-0.3,0.5-0.5,1-0.7c0.5-0.2,1.1-0.3,1.8-0.4c0.7-0.1,1.7-0.1,2.8-0.1     c1.2,0,2.1,0,2.9,0.1c0.8,0.1,1.3,0.2,1.8,0.4c0.4,0.2,0.7,0.4,0.9,0.7s0.3,0.6,0.3,1v6c1.3-1.8,2.5-3.3,3.6-4.5     c1.1-1.2,2.2-2.1,3.2-2.8c1-0.7,2-1.2,3-1.4s2-0.4,3-0.4c0.5,0,1,0,1.5,0.1c0.5,0.1,1.1,0.1,1.7,0.3c0.6,0.1,1.1,0.3,1.5,0.4     c0.4,0.2,0.8,0.3,1,0.5c0.2,0.2,0.3,0.4,0.4,0.6c0.1,0.2,0.2,0.5,0.2,0.9c0.1,0.4,0.1,1,0.2,1.7     C285.3,52.7,285.4,53.7,285.4,55.1z"
           id="path19" /><path
           class="st1"
           d="M336.4,99c0,0.4-0.1,0.7-0.3,1c-0.2,0.3-0.5,0.5-1,0.7c-0.5,0.2-1.1,0.3-1.8,0.4c-0.7,0.1-1.7,0.1-2.8,0.1     c-1.2,0-2.2,0-2.9-0.1c-0.7-0.1-1.3-0.2-1.8-0.4c-0.4-0.2-0.7-0.4-0.9-0.7c-0.2-0.3-0.3-0.6-0.3-1v-5.6c-2.7,2.9-5.4,5.1-8.2,6.5     c-2.8,1.4-5.6,2.2-8.6,2.2c-3.3,0-6.1-0.5-8.4-1.6c-2.3-1.1-4.1-2.6-5.5-4.5c-1.4-1.9-2.4-4.1-3-6.5c-0.6-2.5-0.9-5.6-0.9-9.3     V50.5c0-0.4,0.1-0.7,0.3-1c0.2-0.3,0.6-0.5,1.1-0.7c0.5-0.2,1.2-0.3,2.1-0.4c0.9-0.1,2-0.1,3.3-0.1c1.3,0,2.4,0,3.3,0.1     c0.9,0.1,1.6,0.2,2.1,0.4s0.9,0.4,1.1,0.7s0.3,0.6,0.3,1v27.4c0,2.5,0.2,4.5,0.5,5.8c0.3,1.3,0.8,2.5,1.5,3.5     c0.7,1,1.5,1.7,2.6,2.2c1,0.5,2.2,0.8,3.6,0.8c1.7,0,3.5-0.6,5.2-1.9c1.8-1.3,3.6-3.1,5.6-5.5V50.5c0-0.4,0.1-0.7,0.3-1     c0.2-0.3,0.6-0.5,1.1-0.7c0.5-0.2,1.2-0.3,2.1-0.4c0.9-0.1,2-0.1,3.3-0.1c1.3,0,2.4,0,3.3,0.1c0.9,0.1,1.6,0.2,2.1,0.4     c0.5,0.2,0.9,0.4,1.1,0.7c0.2,0.3,0.3,0.6,0.3,1V99z"
           id="path21" /><path
           class="st1"
           d="M379.7,85.3c0,2.8-0.5,5.2-1.5,7.3c-1,2.1-2.5,3.9-4.4,5.3c-1.9,1.4-4.1,2.5-6.7,3.2     c-2.6,0.7-5.4,1.1-8.4,1.1c-1.8,0-3.5-0.1-5.2-0.4c-1.6-0.3-3.1-0.6-4.4-1c-1.3-0.4-2.4-0.8-3.3-1.3c-0.9-0.4-1.5-0.8-1.9-1.2     c-0.4-0.4-0.7-1-0.9-1.8c-0.2-0.8-0.3-2-0.3-3.6c0-1.1,0-1.9,0.1-2.5c0.1-0.6,0.2-1.1,0.3-1.5c0.1-0.4,0.3-0.6,0.5-0.8     c0.2-0.1,0.5-0.2,0.8-0.2c0.4,0,1,0.2,1.8,0.7c0.8,0.5,1.7,0.9,2.9,1.5c1.2,0.5,2.5,1.1,4,1.5c1.5,0.5,3.3,0.7,5.2,0.7     c1.2,0,2.3-0.1,3.3-0.4c1-0.3,1.8-0.6,2.5-1.1c0.7-0.5,1.2-1.1,1.6-1.8c0.4-0.7,0.5-1.6,0.5-2.5c0-1.1-0.3-2-1-2.8     c-0.7-0.8-1.6-1.5-2.7-2c-1.1-0.6-2.4-1.1-3.7-1.6c-1.4-0.5-2.8-1.1-4.3-1.7c-1.5-0.6-2.9-1.3-4.3-2.1c-1.4-0.8-2.6-1.8-3.7-2.9     c-1.1-1.2-2-2.6-2.7-4.2c-0.7-1.6-1-3.6-1-5.9c0-2.3,0.5-4.4,1.4-6.4c0.9-1.9,2.2-3.6,3.9-5c1.7-1.4,3.8-2.4,6.2-3.2     c2.4-0.8,5.2-1.1,8.2-1.1c1.5,0,3,0.1,4.4,0.3c1.4,0.2,2.7,0.5,3.9,0.8c1.2,0.3,2.1,0.7,2.9,1.1c0.8,0.4,1.4,0.7,1.7,1     c0.3,0.3,0.6,0.5,0.7,0.8c0.1,0.3,0.3,0.6,0.3,1c0.1,0.4,0.1,0.9,0.2,1.4c0.1,0.6,0.1,1.3,0.1,2.1c0,1,0,1.8-0.1,2.4     c-0.1,0.6-0.1,1.1-0.3,1.5c-0.1,0.4-0.3,0.6-0.5,0.7c-0.2,0.1-0.5,0.2-0.8,0.2c-0.3,0-0.8-0.2-1.5-0.6c-0.7-0.4-1.5-0.8-2.6-1.2     c-1-0.4-2.2-0.8-3.6-1.2c-1.4-0.4-2.9-0.6-4.6-0.6c-1.2,0-2.3,0.1-3.2,0.4c-0.9,0.3-1.6,0.6-2.2,1.1c-0.6,0.5-1,1-1.3,1.7     c-0.3,0.6-0.4,1.3-0.4,2c0,1.1,0.3,2.1,1,2.8c0.7,0.8,1.6,1.4,2.7,2c1.1,0.6,2.4,1.1,3.8,1.6c1.4,0.5,2.9,1.1,4.3,1.7     c1.5,0.6,2.9,1.3,4.3,2.1c1.4,0.8,2.7,1.8,3.8,2.9c1.1,1.2,2,2.5,2.7,4.2C379.4,81.2,379.7,83.1,379.7,85.3z"
           id="path23" /></g></g></g><g
     id="Layer_2"
     class="st2"><g
       class="st3"
       id="g26"><g
         id="g28"><path
           class="st1"
           d="M164.2,35.8c0,1.1,0,1.9-0.1,2.7c-0.1,0.7-0.2,1.3-0.4,1.8c-0.2,0.5-0.4,0.8-0.7,1c-0.3,0.2-0.6,0.3-0.9,0.3     h-17.6v56.7c0,0.4-0.1,0.7-0.4,1c-0.2,0.3-0.6,0.5-1.2,0.7c-0.5,0.2-1.3,0.3-2.2,0.4c-0.9,0.1-2.1,0.2-3.4,0.2     c-1.4,0-2.5-0.1-3.5-0.2c-0.9-0.1-1.7-0.3-2.2-0.4c-0.5-0.2-0.9-0.4-1.2-0.7c-0.2-0.3-0.4-0.6-0.4-1V41.6h-17.6     c-0.4,0-0.7-0.1-0.9-0.3c-0.3-0.2-0.5-0.6-0.7-1c-0.2-0.5-0.3-1.1-0.4-1.8c-0.1-0.7-0.1-1.6-0.1-2.7c0-1.1,0-2,0.1-2.8     c0.1-0.8,0.2-1.4,0.4-1.8c0.2-0.5,0.4-0.8,0.7-1c0.3-0.2,0.6-0.3,0.9-0.3h49.5c0.3,0,0.6,0.1,0.9,0.3c0.3,0.2,0.5,0.5,0.7,1     c0.2,0.5,0.3,1.1,0.4,1.8C164.2,33.8,164.2,34.7,164.2,35.8z"
           id="path30" /><path
           class="st1"
           d="M196.7,98.6c0,0.5-0.2,0.9-0.5,1.2c-0.4,0.3-0.9,0.5-1.7,0.6c-0.8,0.1-1.9,0.2-3.5,0.2     c-1.6,0-2.8-0.1-3.6-0.2s-1.3-0.3-1.6-0.6c-0.3-0.3-0.5-0.7-0.5-1.2v-3.9c-2,2.1-4.3,3.8-6.8,5c-2.6,1.2-5.4,1.8-8.5,1.8     c-2.6,0-4.9-0.3-7.1-1c-2.2-0.7-4-1.7-5.6-3c-1.6-1.3-2.8-3-3.7-4.9c-0.9-2-1.3-4.2-1.3-6.8c0-2.8,0.6-5.3,1.7-7.4     c1.1-2.1,2.8-3.8,4.9-5.2c2.2-1.4,4.9-2.4,8.2-3s7-1,11.4-1h4.7v-2.9c0-1.5-0.2-2.9-0.5-4c-0.3-1.1-0.8-2.1-1.5-2.9     c-0.7-0.8-1.6-1.3-2.8-1.7s-2.6-0.5-4.4-0.5c-2.3,0-4.3,0.3-6.1,0.8c-1.8,0.5-3.4,1.1-4.8,1.7c-1.4,0.6-2.5,1.2-3.4,1.7     c-0.9,0.5-1.7,0.8-2.3,0.8c-0.4,0-0.8-0.1-1.1-0.4c-0.3-0.3-0.6-0.6-0.8-1.1c-0.2-0.5-0.4-1.1-0.5-1.7c-0.1-0.7-0.2-1.4-0.2-2.3     c0-1.1,0.1-2,0.3-2.7c0.2-0.7,0.5-1.2,1-1.8c0.5-0.5,1.4-1.1,2.7-1.7c1.3-0.6,2.8-1.2,4.5-1.8c1.7-0.5,3.6-1,5.6-1.3     c2-0.3,4.1-0.5,6.2-0.5c3.8,0,7.1,0.4,9.8,1.1c2.7,0.7,4.9,1.9,6.7,3.4c1.7,1.5,3,3.5,3.8,5.9c0.8,2.4,1.2,5.3,1.2,8.6V98.6z      M183.3,77.8h-5.2c-2.2,0-4.1,0.2-5.7,0.5c-1.6,0.3-2.8,0.8-3.8,1.5c-1,0.7-1.7,1.4-2.1,2.4c-0.5,0.9-0.7,2-0.7,3.2     c0,2,0.6,3.6,1.9,4.8c1.3,1.2,3.1,1.7,5.4,1.7c1.9,0,3.7-0.5,5.3-1.5c1.6-1,3.2-2.4,4.9-4.3V77.8z"
           id="path32" /><path
           class="st1"
           d="M249.5,98.4c0,0.4-0.1,0.7-0.3,1c-0.2,0.3-0.5,0.5-1,0.7c-0.5,0.2-1.1,0.3-1.8,0.4c-0.7,0.1-1.7,0.1-2.8,0.1     c-1.2,0-2.2,0-2.9-0.1c-0.7-0.1-1.3-0.2-1.8-0.4c-0.4-0.2-0.7-0.4-0.9-0.7c-0.2-0.3-0.3-0.6-0.3-1v-5.6c-2.7,2.9-5.4,5.1-8.2,6.5     s-5.6,2.2-8.6,2.2c-3.3,0-6.1-0.5-8.4-1.6c-2.3-1.1-4.1-2.6-5.5-4.5c-1.4-1.9-2.4-4.1-3-6.5c-0.6-2.5-0.9-5.6-0.9-9.3V49.9     c0-0.4,0.1-0.7,0.3-1c0.2-0.3,0.6-0.5,1.1-0.7c0.5-0.2,1.2-0.3,2.1-0.4c0.9-0.1,2-0.1,3.3-0.1c1.3,0,2.4,0,3.3,0.1     c0.9,0.1,1.6,0.2,2.1,0.4c0.5,0.2,0.9,0.4,1.1,0.7c0.2,0.3,0.3,0.6,0.3,1v27.4c0,2.5,0.2,4.5,0.5,5.8c0.3,1.3,0.8,2.5,1.5,3.5     c0.7,1,1.5,1.7,2.6,2.2c1,0.5,2.2,0.8,3.6,0.8c1.7,0,3.5-0.6,5.2-1.9c1.8-1.3,3.6-3.1,5.6-5.5V49.9c0-0.4,0.1-0.7,0.3-1     c0.2-0.3,0.6-0.5,1.1-0.7c0.5-0.2,1.2-0.3,2.1-0.4c0.9-0.1,2-0.1,3.3-0.1c1.3,0,2.4,0,3.3,0.1c0.9,0.1,1.6,0.2,2.1,0.4     c0.5,0.2,0.9,0.4,1.1,0.7c0.2,0.3,0.3,0.6,0.3,1V98.4z"
           id="path34" /><path
           class="st1"
           d="M287.6,54.5c0,1.3,0,2.4-0.1,3.2c-0.1,0.8-0.2,1.5-0.3,2c-0.1,0.5-0.3,0.8-0.6,1c-0.2,0.2-0.5,0.3-0.9,0.3     c-0.3,0-0.6-0.1-1-0.2c-0.4-0.1-0.8-0.3-1.2-0.4c-0.5-0.1-1-0.3-1.5-0.4c-0.5-0.1-1.1-0.2-1.8-0.2c-0.8,0-1.5,0.2-2.3,0.5     c-0.8,0.3-1.5,0.8-2.4,1.4c-0.8,0.7-1.7,1.5-2.6,2.6c-0.9,1.1-1.8,2.4-2.9,4v30.2c0,0.4-0.1,0.7-0.3,1c-0.2,0.3-0.6,0.5-1.1,0.7     c-0.5,0.2-1.2,0.3-2.1,0.4s-2,0.1-3.3,0.1c-1.3,0-2.4,0-3.3-0.1c-0.9-0.1-1.6-0.2-2.1-0.4c-0.5-0.2-0.9-0.4-1.1-0.7     c-0.2-0.3-0.3-0.6-0.3-1V49.9c0-0.4,0.1-0.7,0.3-1c0.2-0.3,0.5-0.5,1-0.7c0.5-0.2,1.1-0.3,1.8-0.4c0.7-0.1,1.7-0.1,2.8-0.1     c1.2,0,2.1,0,2.9,0.1c0.8,0.1,1.3,0.2,1.8,0.4c0.4,0.2,0.7,0.4,0.9,0.7c0.2,0.3,0.3,0.6,0.3,1v6c1.3-1.8,2.5-3.3,3.6-4.5     s2.2-2.1,3.2-2.8c1-0.7,2-1.2,3-1.4c1-0.3,2-0.4,3-0.4c0.5,0,1,0,1.5,0.1c0.5,0.1,1.1,0.1,1.7,0.3c0.6,0.1,1.1,0.3,1.5,0.4     c0.4,0.2,0.8,0.3,1,0.5c0.2,0.2,0.3,0.4,0.4,0.6c0.1,0.2,0.2,0.5,0.2,0.9c0.1,0.4,0.1,1,0.2,1.7     C287.6,52.1,287.6,53.1,287.6,54.5z"
           id="path36" /><path
           class="st1"
           d="M338.6,98.4c0,0.4-0.1,0.7-0.3,1c-0.2,0.3-0.5,0.5-1,0.7c-0.5,0.2-1.1,0.3-1.8,0.4s-1.7,0.1-2.8,0.1     c-1.2,0-2.2,0-2.9-0.1s-1.3-0.2-1.8-0.4c-0.4-0.2-0.7-0.4-0.9-0.7c-0.2-0.3-0.3-0.6-0.3-1v-5.6c-2.7,2.9-5.4,5.1-8.2,6.5     c-2.8,1.4-5.6,2.2-8.6,2.2c-3.3,0-6.1-0.5-8.4-1.6c-2.3-1.1-4.1-2.6-5.5-4.5c-1.4-1.9-2.4-4.1-3-6.5c-0.6-2.5-0.9-5.6-0.9-9.3     V49.9c0-0.4,0.1-0.7,0.3-1c0.2-0.3,0.6-0.5,1.1-0.7c0.5-0.2,1.2-0.3,2.1-0.4c0.9-0.1,2-0.1,3.3-0.1c1.3,0,2.4,0,3.3,0.1     c0.9,0.1,1.6,0.2,2.1,0.4c0.5,0.2,0.9,0.4,1.1,0.7c0.2,0.3,0.3,0.6,0.3,1v27.4c0,2.5,0.2,4.5,0.5,5.8c0.3,1.3,0.8,2.5,1.5,3.5     c0.7,1,1.5,1.7,2.6,2.2c1,0.5,2.2,0.8,3.6,0.8c1.7,0,3.5-0.6,5.2-1.9c1.8-1.3,3.6-3.1,5.6-5.5V49.9c0-0.4,0.1-0.7,0.3-1     c0.2-0.3,0.6-0.5,1.1-0.7c0.5-0.2,1.2-0.3,2.1-0.4c0.9-0.1,2-0.1,3.3-0.1c1.3,0,2.4,0,3.3,0.1c0.9,0.1,1.6,0.2,2.1,0.4     c0.5,0.2,0.9,0.4,1.1,0.7c0.2,0.3,0.3,0.6,0.3,1V98.4z"
           id="path38" /><path
           class="st1"
           d="M382,84.7c0,2.8-0.5,5.2-1.5,7.3c-1,2.1-2.5,3.9-4.4,5.3c-1.9,1.4-4.1,2.5-6.7,3.2c-2.6,0.7-5.4,1.1-8.4,1.1     c-1.8,0-3.5-0.1-5.2-0.4c-1.6-0.3-3.1-0.6-4.4-1c-1.3-0.4-2.4-0.8-3.3-1.3c-0.9-0.4-1.5-0.8-1.9-1.2c-0.4-0.4-0.7-1-0.9-1.8     c-0.2-0.8-0.3-2-0.3-3.6c0-1.1,0-1.9,0.1-2.5c0.1-0.6,0.2-1.1,0.3-1.5c0.1-0.4,0.3-0.6,0.5-0.8c0.2-0.1,0.5-0.2,0.8-0.2     c0.4,0,1,0.2,1.8,0.7c0.8,0.5,1.7,0.9,2.9,1.5c1.2,0.5,2.5,1.1,4,1.5c1.5,0.5,3.3,0.7,5.2,0.7c1.2,0,2.3-0.1,3.3-0.4     c1-0.3,1.8-0.6,2.5-1.1c0.7-0.5,1.2-1.1,1.6-1.8c0.4-0.7,0.5-1.6,0.5-2.5c0-1.1-0.3-2-1-2.8c-0.7-0.8-1.6-1.5-2.7-2     c-1.1-0.6-2.4-1.1-3.7-1.6c-1.4-0.5-2.8-1.1-4.3-1.7c-1.5-0.6-2.9-1.3-4.3-2.1c-1.4-0.8-2.6-1.8-3.7-2.9c-1.1-1.2-2-2.6-2.7-4.2     c-0.7-1.6-1-3.6-1-5.9c0-2.3,0.5-4.4,1.4-6.4c0.9-1.9,2.2-3.6,3.9-5c1.7-1.4,3.8-2.4,6.2-3.2c2.4-0.8,5.2-1.1,8.2-1.1     c1.5,0,3,0.1,4.4,0.3c1.4,0.2,2.7,0.5,3.9,0.8c1.2,0.3,2.1,0.7,2.9,1.1c0.8,0.4,1.4,0.7,1.7,1c0.3,0.3,0.6,0.5,0.7,0.8     c0.1,0.3,0.3,0.6,0.3,1c0.1,0.4,0.1,0.9,0.2,1.4c0.1,0.6,0.1,1.3,0.1,2.1c0,1,0,1.8-0.1,2.4c-0.1,0.6-0.1,1.1-0.3,1.5     c-0.1,0.4-0.3,0.6-0.5,0.7c-0.2,0.1-0.5,0.2-0.8,0.2c-0.3,0-0.8-0.2-1.5-0.6c-0.7-0.4-1.5-0.8-2.6-1.2c-1-0.4-2.2-0.8-3.6-1.2     c-1.4-0.4-2.9-0.6-4.6-0.6c-1.2,0-2.3,0.1-3.2,0.4s-1.6,0.6-2.2,1.1c-0.6,0.5-1,1-1.3,1.7c-0.3,0.6-0.4,1.3-0.4,2     c0,1.1,0.3,2.1,1,2.8c0.7,0.8,1.6,1.4,2.7,2c1.1,0.6,2.4,1.1,3.8,1.6c1.4,0.5,2.9,1.1,4.3,1.7c1.5,0.6,2.9,1.3,4.3,2.1     c1.4,0.8,2.7,1.8,3.8,2.9c1.1,1.2,2,2.5,2.7,4.2C381.6,80.6,382,82.5,382,84.7z"
           id="path40" /></g><path
         class="st4"
         d="M55.9,13.8c-25,0-45.2,20.3-45.2,45.4c0,21.2,14.5,39,34.1,44v0c0.1,0,0.1,0,0.2,0c0.1,0,0.2,0,0.2,0.1    c0,0,0,0,0,0c1.5,0.4,3.1,0.7,4.7,0.9c0.7,0.1,1.5-0.1,2-0.6c0.6-0.5,0.9-1.2,0.9-2l0-0.2c0.1-0.6,0-1.2,0-1.2V40.7H31    c-0.3,0-0.6,0.1-0.8,0.3c-0.2,0.2-0.4,0.5-0.6,0.9c-0.2,0.4-0.3,0.9-0.4,1.6c-0.1,0.7-0.1,1.5-0.1,2.5c0,0.9,0,1.7,0.1,2.4    c0.1,0.7,0.2,1.2,0.4,1.6c0.2,0.4,0.4,0.7,0.6,0.9c0.2,0.2,0.5,0.3,0.8,0.3h13.9l0,43.9c-15.3-4.7-26.4-19-26.4-35.9    c0-20.8,16.8-37.6,37.4-37.6c20.7,0,37.4,16.8,37.4,37.6C93.4,76,82.3,90.3,67,95l0-43.5h13.9c0.3,0,0.6-0.1,0.8-0.3    c0.2-0.2,0.4-0.5,0.6-0.9c0.2-0.4,0.3-0.9,0.4-1.6c0.1-0.7,0.1-1.5,0.1-2.4c0-1,0-1.8-0.1-2.5c-0.1-0.7-0.2-1.2-0.4-1.6    c-0.2-0.4-0.4-0.7-0.6-0.9c-0.2-0.2-0.5-0.3-0.8-0.3h-22v59.5c0,0-0.2,2,0.9,2.8c0.6,0.5,1.3,0.7,2,0.6c1.8-0.2,3.5-0.6,5.2-1v0    c19.6-5,34.1-22.8,34.1-44C101.1,34.1,80.9,13.8,55.9,13.8z"
         id="path42" /></g></g></svg>